<?xml version="1.0" encoding="UTF-8"?>
<svg xmlns="http://www.w3.org/2000/svg" xmlns:xlink="http://www.w3.org/1999/xlink" width="40pt" height="40pt" viewBox="0 0 40 40" version="1.1">
<g id="surface4448467">
<path style=" stroke:none;fill-rule:nonzero;fill:rgb(47.058824%,49.019608%,52.941176%);fill-opacity:1;" d="M 20 4 C 11.164062 4 4 11.164062 4 20 C 4 27.496094 9.164062 33.769531 16.121094 35.507812 C 16.046875 35.289062 16 35.039062 16 34.730469 L 16 31.996094 C 15.351562 31.996094 14.261719 31.996094 13.988281 31.996094 C 12.894531 31.996094 11.921875 31.523438 11.449219 30.648438 C 10.925781 29.675781 10.835938 28.191406 9.535156 27.28125 C 9.152344 26.980469 9.445312 26.632812 9.886719 26.679688 C 10.707031 26.910156 11.386719 27.476562 12.027344 28.308594 C 12.664062 29.144531 12.964844 29.335938 14.15625 29.335938 C 14.734375 29.335938 15.597656 29.300781 16.410156 29.171875 C 16.847656 28.0625 17.605469 27.039062 18.527344 26.558594 C 13.199219 26.007812 10.65625 23.359375 10.65625 19.761719 C 10.65625 18.210938 11.316406 16.710938 12.4375 15.449219 C 12.070312 14.195312 11.609375 11.640625 12.578125 10.667969 C 14.976562 10.667969 16.425781 12.222656 16.773438 12.640625 C 17.96875 12.230469 19.28125 12 20.660156 12 C 22.042969 12 23.359375 12.230469 24.554688 12.644531 C 24.898438 12.226562 26.351562 10.667969 28.753906 10.667969 C 29.730469 11.640625 29.261719 14.207031 28.890625 15.457031 C 30.003906 16.71875 30.660156 18.214844 30.660156 19.761719 C 30.660156 23.355469 28.121094 26.003906 22.800781 26.554688 C 24.265625 27.320312 25.332031 29.464844 25.332031 31.085938 L 25.332031 34.730469 C 25.332031 34.867188 25.300781 34.96875 25.285156 35.085938 C 31.519531 32.902344 36 26.980469 36 20 C 36 11.164062 28.835938 4 20 4 Z M 20 4 "/>
</g>
</svg>
